<svg width="295" height="413" viewBox="0 0 295 413" fill="none" xmlns="http://www.w3.org/2000/svg">
<rect width="267" height="413" rx="20" fill="#FA4415"/>
<path d="M218.84 265.12H230.68V294H220.919V290.64C217.026 293.52 212.013 294.96 205.88 294.96C200.706 294.96 195.959 293.84 191.639 291.6C187.319 289.36 183.88 286.107 181.32 281.84C178.76 277.52 177.479 272.4 177.479 266.48C177.479 260.773 178.786 255.707 181.399 251.28C184.066 246.8 187.746 243.307 192.439 240.8C197.133 238.293 202.413 237.04 208.279 237.04C213.186 237.04 217.639 237.867 221.639 239.52C225.639 241.173 228.999 243.573 231.719 246.72L223.4 254.4C219.4 250.187 214.573 248.08 208.919 248.08C205.346 248.08 202.173 248.853 199.4 250.4C196.626 251.893 194.466 254.027 192.919 256.8C191.373 259.573 190.6 262.773 190.6 266.4C190.6 270.187 191.346 273.413 192.839 276.08C194.386 278.747 196.439 280.773 198.999 282.16C201.559 283.493 204.36 284.16 207.4 284.16C211.933 284.16 215.746 282.88 218.84 280.32V265.12Z" fill="white"/>
<path d="M147.008 237.04C153.674 237.04 158.874 239.147 162.608 243.36C166.341 247.52 168.208 253.467 168.208 261.2V294H155.248V261.6C155.248 257.12 154.181 253.76 152.048 251.52C149.968 249.227 147.061 248.08 143.328 248.08C139.381 248.08 136.208 249.307 133.808 251.76C131.461 254.16 130.288 257.733 130.288 262.48V294H117.328V238H129.888V244.8C131.808 242.24 134.208 240.32 137.088 239.04C139.968 237.707 143.274 237.04 147.008 237.04Z" fill="white"/>
<path d="M97.8557 248.4V283.6H107.536V294H75.1357V283.6H84.8957V248.4H75.1357V238H107.536V248.4H97.8557Z" fill="white"/>
<path d="M68.4401 253.68C63.6401 250.907 58.4935 249.12 53.0001 248.32V294H40.0401V248.32C34.5468 249.12 29.3735 250.907 24.5201 253.68L20.1201 244C23.9601 241.707 28.1201 239.973 32.6001 238.8C37.0801 237.627 41.6935 237.04 46.4401 237.04C51.2401 237.04 55.8801 237.627 60.3601 238.8C64.8935 239.973 69.0535 241.707 72.8401 244L68.4401 253.68Z" fill="white"/>
<path d="M131.838 191.2C129.171 193.013 125.811 194.427 121.758 195.44C117.758 196.453 113.491 196.96 108.958 196.96C103.304 196.96 98.5043 196.267 94.5576 194.88C90.611 193.44 87.6243 191.467 85.5976 188.96C83.571 186.4 82.5576 183.493 82.5576 180.24C82.5576 177.253 83.3843 174.613 85.0376 172.32C86.691 170.027 88.9576 168.32 91.8376 167.2C89.651 166.027 87.9443 164.427 86.7176 162.4C85.5443 160.373 84.9576 158.107 84.9576 155.6C84.9576 152.56 85.891 149.787 87.7576 147.28C89.6243 144.773 92.451 142.773 96.2376 141.28C100.024 139.787 104.664 139.04 110.158 139.04C113.784 139.04 117.331 139.413 120.798 140.16C124.264 140.853 127.278 141.813 129.838 143.04L126.238 152.96C121.331 150.667 116.131 149.52 110.638 149.52C106.478 149.52 103.331 150.16 101.198 151.44C99.1176 152.667 98.0776 154.347 98.0776 156.48C98.0776 158.453 98.771 159.973 100.158 161.04C101.598 162.053 103.758 162.56 106.638 162.56H121.918V172.8H105.838C102.584 172.8 100.078 173.36 98.3176 174.48C96.5576 175.6 95.6776 177.227 95.6776 179.36C95.6776 181.6 96.7976 183.36 99.0376 184.64C101.331 185.867 104.824 186.48 109.518 186.48C112.824 186.48 116.131 186.053 119.438 185.2C122.744 184.293 125.544 183.04 127.838 181.44L131.838 191.2Z" fill="white"/>
<path d="M48.0401 174L40.5201 181.84V196H27.6401V140H40.5201V166.16L65.3201 140H79.7201L56.5201 164.96L81.0801 196H65.9601L48.0401 174Z" fill="white"/>
<path d="M224.648 98L213.848 82.4H213.208H201.928V98H188.968V42H213.208C218.168 42 222.462 42.8267 226.088 44.48C229.768 46.1333 232.595 48.48 234.568 51.52C236.542 54.56 237.528 58.16 237.528 62.32C237.528 66.48 236.515 70.08 234.488 73.12C232.515 76.1067 229.688 78.4 226.008 80L238.568 98H224.648ZM224.408 62.32C224.408 59.1733 223.395 56.7733 221.368 55.12C219.342 53.4133 216.382 52.56 212.488 52.56H201.928V72.08H212.488C216.382 72.08 219.342 71.2267 221.368 69.52C223.395 67.8133 224.408 65.4133 224.408 62.32Z" fill="white"/>
<path d="M150.496 41.04C155.67 41.04 160.176 42.0533 164.016 44.08C167.856 46.1067 170.843 49.0933 172.976 53.04C175.11 56.9867 176.176 61.76 176.176 67.36V98H163.216V84.56H137.616V98H124.816V67.36C124.816 61.76 125.883 56.9867 128.016 53.04C130.15 49.0933 133.136 46.1067 136.976 44.08C140.816 42.0533 145.323 41.04 150.496 41.04ZM163.216 74.16V66.16C163.216 61.52 162.07 58.0267 159.776 55.68C157.483 53.28 154.363 52.08 150.416 52.08C146.416 52.08 143.27 53.28 140.976 55.68C138.736 58.0267 137.616 61.52 137.616 66.16V74.16H163.216Z" fill="white"/>
<path d="M91.5601 41.04C98.1735 41.04 103.32 42.9867 107 46.88C110.68 50.72 112.52 56.2933 112.52 63.6V98H99.5601V64C99.5601 60.0533 98.5201 57.0933 96.4401 55.12C94.4135 53.0933 91.7201 52.08 88.3601 52.08C84.6801 52.08 81.7468 53.1467 79.5601 55.28C77.3735 57.36 76.2801 60.5333 76.2801 64.8V98H63.3201V64C63.3201 60.0533 62.3601 57.0933 60.4401 55.12C58.5201 53.0933 55.9068 52.08 52.6001 52.08C48.9735 52.08 46.0668 53.1467 43.8801 55.28C41.6935 57.36 40.6001 60.5333 40.6001 64.8V98H27.6401V42H40.2001V48.88C41.9068 46.3733 44.1735 44.4533 47.0001 43.12C49.8268 41.7333 53.0801 41.04 56.7601 41.04C60.6001 41.04 63.9601 41.76 66.8401 43.2C69.7201 44.5867 71.9335 46.6133 73.4801 49.28C75.4001 46.6133 77.9068 44.5867 81.0001 43.2C84.1468 41.76 87.6668 41.04 91.5601 41.04Z" fill="white"/>
<path d="M232.729 371.482C231.084 372.777 228.966 373.775 226.376 374.475C223.786 375.175 220.986 375.525 217.976 375.525C214.441 375.525 211.431 375.07 208.946 374.16C206.496 373.25 204.641 371.99 203.381 370.38C202.121 368.77 201.491 366.915 201.491 364.815C201.491 362.785 202.051 361.017 203.171 359.512C204.291 358.007 205.796 356.905 207.686 356.205C206.251 355.435 205.114 354.367 204.274 353.002C203.469 351.602 203.066 350.045 203.066 348.33C203.066 346.37 203.644 344.602 204.799 343.027C205.989 341.417 207.756 340.14 210.101 339.195C212.446 338.215 215.334 337.725 218.764 337.725C221.074 337.725 223.331 337.97 225.536 338.46C227.741 338.95 229.666 339.615 231.311 340.455L229.369 345.862C226.289 344.252 222.841 343.447 219.026 343.447C216.016 343.447 213.741 343.937 212.201 344.917C210.696 345.862 209.944 347.14 209.944 348.75C209.944 350.325 210.504 351.532 211.624 352.372C212.744 353.177 214.389 353.58 216.559 353.58H226.271V359.25H216.191C213.706 359.25 211.781 359.687 210.416 360.562C209.051 361.402 208.369 362.662 208.369 364.342C208.369 366.022 209.191 367.352 210.836 368.332C212.481 369.312 214.966 369.802 218.291 369.802C220.601 369.802 222.841 369.487 225.011 368.857C227.216 368.227 229.054 367.352 230.524 366.232L232.729 371.482Z" fill="white"/>
<path d="M189.046 338.25L173.033 375H166.313L150.248 338.25H157.651L169.883 366.6L182.221 338.25H189.046Z" fill="white"/>
<path d="M119.046 337.725C122.336 337.725 125.206 338.372 127.656 339.667C130.106 340.962 131.996 342.887 133.326 345.442C134.691 347.962 135.374 351.025 135.374 354.63V375H128.549V365.55H109.439V375H102.719V354.63C102.719 351.025 103.384 347.962 104.714 345.442C106.079 342.887 107.986 340.962 110.436 339.667C112.886 338.372 115.756 337.725 119.046 337.725ZM128.549 359.827V354C128.549 350.605 127.709 348.05 126.029 346.335C124.349 344.585 122.004 343.71 118.994 343.71C115.984 343.71 113.639 344.585 111.959 346.335C110.279 348.05 109.439 350.605 109.439 354V359.827H128.549Z" fill="white"/>
<path d="M81.8551 338.25V360.143C81.8551 365.183 80.5601 369.015 77.9701 371.64C75.4151 374.23 71.7401 375.525 66.9451 375.525C64.3551 375.525 62.0451 375.123 60.0151 374.318C58.0201 373.478 56.4276 372.34 55.2376 370.905C54.0126 372.34 52.4026 373.478 50.4076 374.318C48.4476 375.123 46.1726 375.525 43.5826 375.525C38.7876 375.525 35.0951 374.213 32.5051 371.588C29.9151 368.963 28.6201 365.148 28.6201 360.143V338.25H35.4451V359.933C35.4451 363.258 36.1276 365.69 37.4926 367.23C38.8926 368.77 40.9226 369.54 43.5826 369.54C49.0776 369.54 51.8251 366.338 51.8251 359.933V338.25H58.6501V359.933C58.6501 366.338 61.4151 369.54 66.9451 369.54C72.3701 369.54 75.0826 366.338 75.0826 359.933V338.25H81.8551Z" fill="white"/>
<path fill-rule="evenodd" clip-rule="evenodd" d="M173.902 206.233C172.32 203.97 172.872 200.852 175.136 199.27L184.017 193.063C195.008 185.38 209.694 185.639 220.408 193.704C227.665 199.166 237.612 199.341 245.057 194.138L246.743 192.96C257.671 185.321 272.067 184.815 283.505 191.668L291.82 196.649C294.189 198.069 294.959 201.139 293.54 203.508C292.12 205.877 289.05 206.647 286.681 205.228L278.365 200.246C270.309 195.419 260.169 195.776 252.472 201.156L250.786 202.334C239.794 210.017 225.109 209.758 214.394 201.693C207.137 196.231 197.19 196.056 189.745 201.259L180.865 207.467C178.601 209.049 175.484 208.496 173.902 206.233Z" fill="#FFA20C"/>
<path fill-rule="evenodd" clip-rule="evenodd" d="M173.902 177.553C172.32 175.29 172.872 172.173 175.136 170.591L184.017 164.384C195.008 156.701 209.694 156.96 220.408 165.024C227.665 170.487 237.612 170.662 245.057 165.458L246.743 164.28C257.671 156.642 272.067 156.136 283.505 162.988L291.82 167.97C294.189 169.389 294.959 172.46 293.54 174.829C292.12 177.198 289.05 177.967 286.681 176.548L278.365 171.567C270.309 166.74 260.169 167.096 252.472 172.477L250.786 173.655C239.794 181.337 225.109 181.079 214.394 173.014C207.137 167.552 197.19 167.376 189.745 172.58L180.865 178.787C178.601 180.369 175.484 179.817 173.902 177.553Z" fill="#FFA20C"/>
<path fill-rule="evenodd" clip-rule="evenodd" d="M173.902 148.874C172.32 146.611 172.872 143.493 175.136 141.911L184.017 135.704C195.008 128.022 209.694 128.28 220.408 136.345C227.665 141.807 237.612 141.983 245.057 136.779L246.743 135.601C257.671 127.962 272.067 127.456 283.505 134.309L291.82 139.29C294.189 140.71 294.959 143.78 293.54 146.149C292.12 148.518 289.05 149.288 286.681 147.869L278.365 142.887C270.309 138.061 260.169 138.417 252.472 143.797L250.786 144.975C239.794 152.658 225.109 152.399 214.394 144.335C207.137 138.872 197.19 138.697 189.745 143.9L180.865 150.108C178.601 151.69 175.484 151.137 173.902 148.874Z" fill="#FFA20C"/>
</svg>
